# xmcd CD database file
#
# Track frame offsets:
#	150
#	19377
#	41125
#	60347
#
# Disc length: 1090 seconds
#
# Revision: 0
# Processed by: cddbd v1.5PL3 Copyright (c) Steve Scherf et al.
# Submitted via: CDex 1.50Beta7
#
DISCID=2e044004
DTITLE=小畑由香里 - 冬蛍〜フユホタル〜
DYEAR=2003
DGENRE=JPop
TTITLE0=冬蛍〜フユホタル〜
TTITLE1=明日の地図
TTITLE2=冬蛍〜フユホタル〜 (Instrumental)
TTITLE3=明日の地図 (Instrumental)
EXTD=YEAR: 2003
EXTT0=
EXTT1=
EXTT2=
EXTT3=
PLAYORDER=
